<svg width="120" height="120" viewBox="0 0 120 120" fill="none" xmlns="http://www.w3.org/2000/svg">
  <rect width="120" height="120" rx="24" fill="#F5F5F7"/>
  <path d="M60 30C46.745 30 36 40.745 36 54C36 67.255 46.745 78 60 78C73.255 78 84 67.255 84 54C84 40.745 73.255 30 60 30ZM60 36C69.941 36 78 44.059 78 54C78 63.941 69.941 72 60 72C50.059 72 42 63.941 42 54C42 44.059 50.059 36 60 36Z" fill="#0071E3"/>
  <rect x="57" y="18" width="6" height="18" rx="2" fill="#0071E3"/>
  <rect x="57" y="84" width="6" height="18" rx="2" fill="#0071E3"/>
  <rect x="84" y="57" width="6" height="18" rx="2" transform="rotate(-90 84 57)" fill="#0071E3"/>
  <rect x="18" y="57" width="6" height="18" rx="2" transform="rotate(-90 18 57)" fill="#0071E3"/>
  <path d="M60 42C52.268 42 46 48.268 46 56V90C46 93.314 48.686 96 52 96H68C71.314 96 74 93.314 74 90V56C74 48.268 67.732 42 60 42ZM60 48C64.418 48 68 51.582 68 56V60H52V56C52 51.582 55.582 48 60 48ZM68 90H52V66H68V90Z" fill="#0071E3"/>
</svg>
